<svg viewBox="0 0 1200 300" width="1200" height="300" fill="none" xmlns="http://www.w3.org/2000/svg" font-family="'Segoe UI','Helvetica Neue',Arial,sans-serif"><defs><linearGradient id="cardbg" x1="0" y1="0" x2="0" y2="300" gradientUnits="userSpaceOnUse"><stop offset="0" stop-color="#0c1013"/><stop offset="1" stop-color="#0a0c0d"/></linearGradient><linearGradient id="topline" x1="0" y1="0" x2="1200" y2="0" gradientUnits="userSpaceOnUse"><stop offset="0" stop-color="#63e6a3" stop-opacity="0"/><stop offset="0.5" stop-color="#63e6a3" stop-opacity="0.55"/><stop offset="1" stop-color="#63e6a3" stop-opacity="0"/></linearGradient></defs><defs><clipPath id="tclip"><rect width="1200" height="300" rx="16"/></clipPath><radialGradient id="tglow" cx="0.85" cy="0.2" r="0.7"><stop offset="0" stop-color="#63e6a3" stop-opacity="0.1"/><stop offset="1" stop-color="#63e6a3" stop-opacity="0"/></radialGradient></defs><rect x="0.5" y="0.5" width="1199" height="299" rx="16" fill="url(#cardbg)" stroke="#20262c"/><path d="M40 1H1160" stroke="url(#topline)" stroke-width="1"/><g clip-path="url(#tclip)"><rect width="1200" height="300" fill="url(#tglow)"/></g><rect x="56" y="44" width="174" height="24" rx="6" fill="rgba(99,230,163,0.10)" stroke="rgba(99,230,163,0.32)"/><text x="66" y="60.5" font-family="ui-monospace,'Cascadia Code','JetBrains Mono',Consolas,'Liberation Mono',monospace" font-size="10.5" letter-spacing="1.4" fill="#63e6a3">FLAGSHIP — AKIJ IBOS</text><text x="56" y="122" font-size="40" font-weight="700" letter-spacing="-1.2" fill="#f3f6f7">Travilo</text><text x="58" y="148" font-family="ui-monospace,'Cascadia Code','JetBrains Mono',Consolas,'Liberation Mono',monospace" font-size="11" letter-spacing="1.8" fill="#7f8b94" text-anchor="start">MULTI-TENANT SAAS FLIGHT-BOOKING PLATFORM</text><text x="56" y="180" font-size="14.5" fill="#c3ccd2">Six airline &amp; GDS suppliers — each with its own protocol — folded behind one</text><text x="56" y="202" font-size="14.5" fill="#c3ccd2">clean contract for search, booking, ticketing &amp; refunds on .NET microservices.</text><g><rect x="56" y="222" width="62" height="24" rx="7" fill="rgba(99,230,163,0.10)" stroke="rgba(99,230,163,0.32)"/><text x="87.0" y="237.96" font-family="ui-monospace,'Cascadia Code','JetBrains Mono',Consolas,'Liberation Mono',monospace" font-size="11" fill="#63e6a3" text-anchor="middle">.NET 9</text></g><g><rect x="126" y="222" width="48" height="24" rx="7" fill="rgba(255,255,255,0.02)" stroke="#20262c"/><text x="150.0" y="237.96" font-family="ui-monospace,'Cascadia Code','JetBrains Mono',Consolas,'Liberation Mono',monospace" font-size="11" fill="#c3ccd2" text-anchor="middle">gRPC</text></g><g><rect x="182" y="222" width="48" height="24" rx="7" fill="rgba(255,255,255,0.02)" stroke="#20262c"/><text x="206.0" y="237.96" font-family="ui-monospace,'Cascadia Code','JetBrains Mono',Consolas,'Liberation Mono',monospace" font-size="11" fill="#c3ccd2" text-anchor="middle">SOAP</text></g><g><rect x="238" y="222" width="48" height="24" rx="7" fill="rgba(255,255,255,0.02)" stroke="#20262c"/><text x="262.0" y="237.96" font-family="ui-monospace,'Cascadia Code','JetBrains Mono',Consolas,'Liberation Mono',monospace" font-size="11" fill="#c3ccd2" text-anchor="middle">REST</text></g><g><rect x="294" y="222" width="88" height="24" rx="7" fill="rgba(255,255,255,0.02)" stroke="#20262c"/><text x="338.0" y="237.96" font-family="ui-monospace,'Cascadia Code','JetBrains Mono',Consolas,'Liberation Mono',monospace" font-size="11" fill="#c3ccd2" text-anchor="middle">SQL SERVER</text></g><g><rect x="390" y="222" width="88" height="24" rx="7" fill="rgba(255,255,255,0.02)" stroke="#20262c"/><text x="434.0" y="237.96" font-family="ui-monospace,'Cascadia Code','JetBrains Mono',Consolas,'Liberation Mono',monospace" font-size="11" fill="#c3ccd2" text-anchor="middle">KUBERNETES</text></g><g stroke="#7f8b94" stroke-width="1.5" stroke-linecap="round" stroke-linejoin="round" fill="none"><rect x="57" y="266" width="10" height="7.5" rx="1.5"/><path d="M59 266v-2.4a3 3 0 0 1 6 0V266"/></g><text x="76" y="274.5" font-family="ui-monospace,'Cascadia Code','JetBrains Mono',Consolas,'Liberation Mono',monospace" font-size="10" letter-spacing="1.5" fill="#7f8b94" text-anchor="start">PRIVATE &amp; PROPRIETARY — NO PUBLIC REPOSITORY</text><path d="M664 40 V260" stroke="#20262c"/><rect x="700" y="48.0" width="96" height="24" rx="6" fill="#12161a" stroke="#2a323a"/><text x="748.0" y="63.8" font-family="ui-monospace,'Cascadia Code','JetBrains Mono',Consolas,'Liberation Mono',monospace" font-size="10" fill="#9aa4ac" text-anchor="middle">Amadeus</text><path d="M796 60.0 C 856 60.0, 840 150.0, 883 150.0" stroke="#63e6a3" stroke-opacity="0.28" stroke-width="1.2"/><rect x="700" y="84.0" width="96" height="24" rx="6" fill="#12161a" stroke="#2a323a"/><text x="748.0" y="99.8" font-family="ui-monospace,'Cascadia Code','JetBrains Mono',Consolas,'Liberation Mono',monospace" font-size="10" fill="#9aa4ac" text-anchor="middle">Sabre</text><path d="M796 96.0 C 856 96.0, 840 150.0, 883 150.0" stroke="#63e6a3" stroke-opacity="0.28" stroke-width="1.2"/><rect x="700" y="120.0" width="96" height="24" rx="6" fill="#12161a" stroke="#2a323a"/><text x="748.0" y="135.8" font-family="ui-monospace,'Cascadia Code','JetBrains Mono',Consolas,'Liberation Mono',monospace" font-size="10" fill="#9aa4ac" text-anchor="middle">Travelport</text><path d="M796 132.0 C 856 132.0, 840 150.0, 883 150.0" stroke="#63e6a3" stroke-opacity="0.28" stroke-width="1.2"/><rect x="700" y="156.0" width="96" height="24" rx="6" fill="#12161a" stroke="#2a323a"/><text x="748.0" y="171.8" font-family="ui-monospace,'Cascadia Code','JetBrains Mono',Consolas,'Liberation Mono',monospace" font-size="10" fill="#9aa4ac" text-anchor="middle">AirArabia</text><path d="M796 168.0 C 856 168.0, 840 150.0, 883 150.0" stroke="#63e6a3" stroke-opacity="0.28" stroke-width="1.2"/><rect x="700" y="192.0" width="96" height="24" rx="6" fill="#12161a" stroke="#2a323a"/><text x="748.0" y="207.8" font-family="ui-monospace,'Cascadia Code','JetBrains Mono',Consolas,'Liberation Mono',monospace" font-size="10" fill="#9aa4ac" text-anchor="middle">AirBlue</text><path d="M796 204.0 C 856 204.0, 840 150.0, 883 150.0" stroke="#63e6a3" stroke-opacity="0.28" stroke-width="1.2"/><rect x="700" y="228.0" width="96" height="24" rx="6" fill="#12161a" stroke="#2a323a"/><text x="748.0" y="243.8" font-family="ui-monospace,'Cascadia Code','JetBrains Mono',Consolas,'Liberation Mono',monospace" font-size="10" fill="#9aa4ac" text-anchor="middle">Tripjack</text><path d="M796 240.0 C 856 240.0, 840 150.0, 883 150.0" stroke="#63e6a3" stroke-opacity="0.28" stroke-width="1.2"/><circle cx="910" cy="150.0" r="24" fill="#12161a" stroke="#2fbd7e" stroke-width="1.6"/><path d="M903 150.0h14M910 143.0v14" stroke="#63e6a3" stroke-width="1.6" stroke-linecap="round"/><path d="M934 150.0 H1010" stroke="#63e6a3" stroke-opacity="0.28" stroke-width="1.2"/><rect x="1010" y="134.0" width="118" height="32" rx="8" fill="rgba(99,230,163,0.10)" stroke="rgba(99,230,163,0.32)"/><text x="1069.0" y="153.8" font-family="ui-monospace,'Cascadia Code','JetBrains Mono',Consolas,'Liberation Mono',monospace" font-size="10.5" letter-spacing="0.5" fill="#63e6a3" text-anchor="middle">UNIFIED API</text><circle r="2.6" fill="#63e6a3" opacity="0"><animateMotion dur="3.6s" begin="0.0s" repeatCount="indefinite" path="M796 60.0 C 856 60.0, 840 150.0, 883 150.0"/><animate attributeName="opacity" values="0;0.9;0.9;0" keyTimes="0;0.15;0.85;1" dur="3.6s" begin="0.0s" repeatCount="indefinite"/></circle><circle r="2.6" fill="#63e6a3" opacity="0"><animateMotion dur="3.6s" begin="1.2s" repeatCount="indefinite" path="M796 132.0 C 856 132.0, 840 150.0, 883 150.0"/><animate attributeName="opacity" values="0;0.9;0.9;0" keyTimes="0;0.15;0.85;1" dur="3.6s" begin="1.2s" repeatCount="indefinite"/></circle><circle r="2.6" fill="#63e6a3" opacity="0"><animateMotion dur="3.6s" begin="2.4s" repeatCount="indefinite" path="M796 204.0 C 856 204.0, 840 150.0, 883 150.0"/><animate attributeName="opacity" values="0;0.9;0.9;0" keyTimes="0;0.15;0.85;1" dur="3.6s" begin="2.4s" repeatCount="indefinite"/></circle><circle r="2.6" fill="#63e6a3" opacity="0"><animateMotion dur="1.6s" begin="0.6s" repeatCount="indefinite" path="M934 150.0 H1010"/><animate attributeName="opacity" values="0;0.9;0.9;0" keyTimes="0;0.2;0.8;1" dur="1.6s" begin="0.6s" repeatCount="indefinite"/></circle></svg>