<svg viewBox="0 0 1200 372" width="1200" height="372" fill="none" xmlns="http://www.w3.org/2000/svg" font-family="'Segoe UI','Helvetica Neue',Arial,sans-serif"><defs><linearGradient id="cardbg" x1="0" y1="0" x2="0" y2="372" gradientUnits="userSpaceOnUse"><stop offset="0" stop-color="#ffffff"/><stop offset="1" stop-color="#f6faf8"/></linearGradient><linearGradient id="topline" x1="0" y1="0" x2="1200" y2="0" gradientUnits="userSpaceOnUse"><stop offset="0" stop-color="#0e8a55" stop-opacity="0"/><stop offset="0.5" stop-color="#0e8a55" stop-opacity="0.55"/><stop offset="1" stop-color="#0e8a55" stop-opacity="0"/></linearGradient></defs><rect x="0.5" y="0.5" width="1199" height="371" rx="16" fill="url(#cardbg)" stroke="#dbe4df"/><path d="M40 1H1160" stroke="url(#topline)" stroke-width="1"/><path d="M320 56 V316" stroke="#dbe4df"/><circle cx="320" cy="64" r="5.5" fill="#f6faf8" stroke="#0e8a55" stroke-width="2"/><circle cx="320" cy="64" r="11" fill="#0e8a55" opacity="0.10"/><text x="284" y="68" font-family="ui-monospace,'Cascadia Code','JetBrains Mono',Consolas,'Liberation Mono',monospace" font-size="11.5" letter-spacing="1.2" fill="#5b6a64" text-anchor="end">JAN 2025 — PRESENT</text><rect x="220" y="80" width="64" height="20" rx="5" fill="rgba(14,138,85,0.07)" stroke="rgba(14,138,85,0.32)"/><text x="228" y="94" font-family="ui-monospace,'Cascadia Code','JetBrains Mono',Consolas,'Liberation Mono',monospace" font-size="9.5" letter-spacing="1.2" fill="#0e8a55">CURRENT</text><text x="360" y="70" font-size="20" font-weight="600" letter-spacing="-0.3" fill="#0e1512">Software Engineer</text><text x="360" y="94" font-size="14" font-weight="600" fill="#0e8a55">Akij iBOS Ltd. — Travilo</text><rect x="361" y="115.5" width="5" height="5" fill="#0a6b42" transform="rotate(45 363.5 118)"/><text x="376" y="120" font-size="13.5" fill="#3c4844">Lead developer on the AirArabia, Amadeus &amp; AirBlue supplier integrations.</text><rect x="361" y="136.5" width="5" height="5" fill="#0a6b42" transform="rotate(45 363.5 139)"/><text x="376" y="141" font-size="13.5" fill="#3c4844">Built the reservation system — void, cancel &amp; refund flows — and user management.</text><circle cx="320" cy="172" r="5.5" fill="#f6faf8" stroke="#0e8a55" stroke-width="2"/><circle cx="320" cy="172" r="11" fill="#0e8a55" opacity="0.10"/><text x="284" y="176" font-family="ui-monospace,'Cascadia Code','JetBrains Mono',Consolas,'Liberation Mono',monospace" font-size="11.5" letter-spacing="1.2" fill="#5b6a64" text-anchor="end">JUN 2024 — DEC 2024</text><text x="360" y="178" font-size="20" font-weight="600" letter-spacing="-0.3" fill="#0e1512">Lecturer (Contractual)</text><text x="360" y="202" font-size="14" font-weight="600" fill="#0e8a55">United International University</text><rect x="361" y="223.5" width="5" height="5" fill="#0a6b42" transform="rotate(45 363.5 226)"/><text x="376" y="228" font-size="13.5" fill="#3c4844">Taught OOP, Data Structures &amp; Algorithms, and Computer Networks.</text><rect x="361" y="244.5" width="5" height="5" fill="#0a6b42" transform="rotate(45 363.5 247)"/><text x="376" y="249" font-size="13.5" fill="#3c4844">Contributed to the department&#x27;s BAETE accreditation.</text><circle cx="320" cy="280" r="5.5" fill="#f6faf8" stroke="#0e8a55" stroke-width="2"/><circle cx="320" cy="280" r="11" fill="#0e8a55" opacity="0.10"/><text x="284" y="284" font-family="ui-monospace,'Cascadia Code','JetBrains Mono',Consolas,'Liberation Mono',monospace" font-size="11.5" letter-spacing="1.2" fill="#5b6a64" text-anchor="end">GRADUATED 2024</text><text x="360" y="286" font-size="20" font-weight="600" letter-spacing="-0.3" fill="#0e1512">B.Sc. in Computer Science &amp; Engineering</text><text x="360" y="310" font-size="14" font-weight="600" fill="#0e8a55">United International University</text><rect x="361" y="331.5" width="5" height="5" fill="#0a6b42" transform="rotate(45 363.5 334)"/><text x="376" y="336" font-size="13.5" fill="#3c4844">CGPA 3.92 / 4.00.</text><rect x="361" y="352.5" width="5" height="5" fill="#0a6b42" transform="rotate(45 363.5 355)"/><text x="376" y="357" font-size="13.5" fill="#3c4844">Thesis: hybrid deep learning for pedestrian trajectory imputation — later published in Applied Sciences.</text></svg>